<svg xmlns="http://www.w3.org/2000/svg" width="32" height="32" viewBox="0 0 32 32" fill="none">
<path d="M21.6385 8.78467C19.1973 8.78467 18.1656 9.94959 16.4654 9.94959C14.7223 9.94959 13.3927 8.79314 11.2771 8.79314C9.20644 8.79314 6.9983 10.0574 5.59603 12.211C3.62705 15.248 3.96127 20.9679 7.15027 25.8407C8.29097 27.5851 9.81433 29.5413 11.8124 29.5625H11.8487C13.5852 29.5625 14.101 28.4255 16.4908 28.4121H16.5272C18.8812 28.4121 19.3535 29.5559 21.0827 29.5559H21.119C23.1171 29.5347 24.7222 27.3671 25.8629 25.6294C26.6839 24.3797 26.9891 23.7525 27.6187 22.3387C23.0057 20.5877 22.2646 14.048 26.8268 11.5408C25.4342 9.79701 23.4773 8.78709 21.6325 8.78709L21.6385 8.78467Z" fill="#2D3748"/>
<path d="M21.101 2.43896C19.6478 2.53766 17.9525 3.46281 16.9596 4.67072C16.0586 5.76541 15.3175 7.38928 15.6082 8.9641H15.7244C17.272 8.9641 18.8559 8.03228 19.781 6.8383C20.6723 5.70184 21.348 4.09129 21.101 2.43896Z" fill="#2D3748"/>
</svg>